<svg width="123" height="40" viewBox="0 0 123 40" fill="none" xmlns="http://www.w3.org/2000/svg">
<path d="M8.512 33L0.352 9.16H5.792L11.936 28.296H10.848L16.992 9.16H22.432L14.272 33H8.512ZM31.6195 33.384C29.8915 33.384 28.3128 32.9893 26.8835 32.2C25.4755 31.4107 24.3448 30.3333 23.4915 28.968C22.6595 27.5813 22.2435 26.0133 22.2435 24.264C22.2435 22.4933 22.6595 20.9253 23.4915 19.56C24.3448 18.1947 25.4755 17.1173 26.8835 16.328C28.3128 15.5387 29.8915 15.144 31.6195 15.144C33.3475 15.144 34.9155 15.5387 36.3235 16.328C37.7315 17.1173 38.8515 18.1947 39.6835 19.56C40.5368 20.9253 40.9635 22.4933 40.9635 24.264C40.9635 26.0133 40.5368 27.5813 39.6835 28.968C38.8515 30.3333 37.7315 31.4107 36.3235 32.2C34.9155 32.9893 33.3475 33.384 31.6195 33.384ZM31.6195 29.064C32.4942 29.064 33.2515 28.8613 33.8915 28.456C34.5528 28.0507 35.0648 27.4853 35.4275 26.76C35.8115 26.0347 36.0035 25.2027 36.0035 24.264C36.0035 23.3253 35.8115 22.504 35.4275 21.8C35.0648 21.0747 34.5528 20.5093 33.8915 20.104C33.2515 19.6773 32.4942 19.464 31.6195 19.464C30.7448 19.464 29.9768 19.6773 29.3155 20.104C28.6542 20.5093 28.1315 21.0747 27.7475 21.8C27.3848 22.504 27.2035 23.3253 27.2035 24.264C27.2035 25.2027 27.3848 26.0347 27.7475 26.76C28.1315 27.4853 28.6542 28.0507 29.3155 28.456C29.9768 28.8613 30.7448 29.064 31.6195 29.064ZM43.7913 33V8.776H48.5913V33H43.7913ZM60.5198 33.192C58.4078 33.192 56.7651 32.6267 55.5918 31.496C54.4398 30.344 53.8638 28.744 53.8638 26.696V19.688H50.9198V15.528H51.0798C51.9758 15.528 52.6584 15.304 53.1278 14.856C53.6184 14.408 53.8638 13.736 53.8638 12.84V11.56H58.6638V15.528H62.7598V19.688H58.6638V26.376C58.6638 26.9733 58.7704 27.4747 58.9838 27.88C59.1971 28.264 59.5278 28.552 59.9758 28.744C60.4238 28.936 60.9784 29.032 61.6398 29.032C61.7891 29.032 61.9598 29.0213 62.1518 29C62.3438 28.9787 62.5464 28.9573 62.7598 28.936V33C62.4398 33.0427 62.0771 33.0853 61.6718 33.128C61.2664 33.1707 60.8824 33.192 60.5198 33.192ZM71.8445 33.384C70.4365 33.384 69.2312 33.0853 68.2285 32.488C67.2472 31.8693 66.5005 31.016 65.9885 29.928C65.4765 28.84 65.2205 27.5707 65.2205 26.12V15.528H70.0205V25.736C70.0205 26.3973 70.1485 26.984 70.4045 27.496C70.6818 27.9867 71.0658 28.3707 71.5565 28.648C72.0472 28.9253 72.6018 29.064 73.2205 29.064C73.8605 29.064 74.4152 28.9253 74.8845 28.648C75.3752 28.3707 75.7485 27.9867 76.0045 27.496C76.2818 26.984 76.4205 26.3973 76.4205 25.736V15.528H81.2205V33H76.7405V29.544L76.9965 30.312C76.5912 31.3573 75.9298 32.136 75.0125 32.648C74.1165 33.1387 73.0605 33.384 71.8445 33.384ZM84.7288 33V15.528H89.2088V19.72L88.8888 19.112C89.2728 17.64 89.9021 16.648 90.7768 16.136C91.6728 15.6027 92.7288 15.336 93.9448 15.336H94.9688V19.496H93.4648C92.2914 19.496 91.3421 19.8587 90.6168 20.584C89.8914 21.288 89.5288 22.2907 89.5288 23.592V33H84.7288ZM102.481 33.384C101.222 33.384 100.134 33.1813 99.2165 32.776C98.2992 32.3707 97.5952 31.7947 97.1045 31.048C96.6138 30.28 96.3685 29.3733 96.3685 28.328C96.3685 27.3467 96.5925 26.4827 97.0405 25.736C97.4885 24.968 98.1712 24.328 99.0885 23.816C100.027 23.304 101.19 22.9413 102.577 22.728L107.921 21.864V25.384L103.441 26.184C102.758 26.312 102.235 26.536 101.873 26.856C101.51 27.1547 101.329 27.592 101.329 28.168C101.329 28.7013 101.531 29.1173 101.937 29.416C102.342 29.7147 102.843 29.864 103.441 29.864C104.23 29.864 104.923 29.6933 105.521 29.352C106.118 29.0107 106.577 28.552 106.897 27.976C107.238 27.3787 107.409 26.728 107.409 26.024V21.48C107.409 20.8187 107.142 20.264 106.609 19.816C106.097 19.368 105.393 19.144 104.497 19.144C103.643 19.144 102.886 19.3787 102.225 19.848C101.585 20.3173 101.115 20.936 100.817 21.704L96.9765 19.88C97.3178 18.8987 97.8618 18.056 98.6085 17.352C99.3552 16.648 100.251 16.104 101.297 15.72C102.342 15.336 103.483 15.144 104.72 15.144C106.193 15.144 107.494 15.4107 108.625 15.944C109.755 16.4773 110.63 17.224 111.249 18.184C111.889 19.1227 112.208 20.2213 112.208 21.48V33H107.729V30.184L108.817 29.992C108.305 30.76 107.739 31.4 107.121 31.912C106.502 32.4027 105.809 32.7653 105.041 33C104.273 33.256 103.419 33.384 102.481 33.384Z" fill="#2F353D"/>
<path d="M119.848 25.1386C118.785 24.0818 117.484 23.5 116 23.5C114.478 23.5 113.143 24.0654 112.085 25.1595C111.049 26.2304 110.5 27.5407 110.5 29.0231C110.5 30.487 111.058 31.7789 112.085 32.8405C113.143 33.9346 114.478 34.5 116 34.5C117.484 34.5 118.785 33.9182 119.848 32.8614C120.911 31.8046 121.5 30.5064 121.5 29.0231C121.5 27.5216 120.921 26.2049 119.848 25.1386Z" fill="#1279F2" stroke="white" stroke-width="3"/>
</svg>
