<svg width="32" height="33" viewBox="0 0 32 33" fill="none" xmlns="http://www.w3.org/2000/svg">
<path d="M1.91675 1.91667H3.82157C4.18035 1.91667 4.35974 1.91667 4.5041 1.98265C4.63132 2.04079 4.73913 2.13429 4.81467 2.25201C4.9004 2.38559 4.92577 2.56318 4.97651 2.91835L5.66675 7.75M5.66675 7.75L7.20076 19.025C7.39542 20.4558 7.49276 21.1712 7.83481 21.7097C8.13622 22.1842 8.56833 22.5615 9.07914 22.7962C9.65884 23.0625 10.3808 23.0625 11.8248 23.0625H24.3051C25.6796 23.0625 26.3669 23.0625 26.9286 22.8152C27.4238 22.5971 27.8486 22.2456 28.1555 21.7999C28.5035 21.2944 28.6321 20.6193 28.8893 19.269L30.8196 9.13497C30.9101 8.65972 30.9554 8.4221 30.8898 8.23636C30.8323 8.07342 30.7187 7.93621 30.5694 7.8492C30.3992 7.75 30.1573 7.75 29.6736 7.75H5.66675ZM13.5834 29.625C13.5834 30.4304 12.9305 31.0833 12.1251 31.0833C11.3197 31.0833 10.6667 30.4304 10.6667 29.625C10.6667 28.8196 11.3197 28.1667 12.1251 28.1667C12.9305 28.1667 13.5834 28.8196 13.5834 29.625ZM25.2501 29.625C25.2501 30.4304 24.5972 31.0833 23.7917 31.0833C22.9863 31.0833 22.3334 30.4304 22.3334 29.625C22.3334 28.8196 22.9863 28.1667 23.7917 28.1667C24.5972 28.1667 25.2501 28.8196 25.2501 29.625Z" stroke="#2F353D" stroke-width="2" stroke-linecap="round" stroke-linejoin="round"/>
</svg>
