<svg width="33" height="33" viewBox="0 0 33 33" fill="none" xmlns="http://www.w3.org/2000/svg">
<path d="M2.91826 21.8158L5.70104 20.2093C5.85177 20.1223 6.02866 20.0921 6.19973 20.1241L11.675 21.1488C12.125 21.2331 12.5404 20.8867 12.5383 20.4289L12.517 15.6315C12.5164 15.5012 12.5508 15.373 12.6166 15.2605L15.3797 10.5299C15.5235 10.2837 15.5106 9.97627 15.3467 9.74297L10.6943 3.12079M26.7087 6.08612C18.6879 9.93757 23.0627 15.0417 24.5212 15.7709C27.2586 17.1394 31.0654 17.2292 31.0654 17.2292C31.0773 16.9876 31.0834 16.7445 31.0834 16.5C31.0834 8.44585 24.5542 1.91667 16.5001 1.91667C8.44593 1.91667 1.91675 8.44585 1.91675 16.5C1.91675 24.5542 8.44593 31.0833 16.5001 31.0833C16.7446 31.0833 16.9877 31.0773 17.2292 31.0654M23.4385 30.9955L18.8203 18.8202L30.9956 23.4384L25.5966 25.5966L23.4385 30.9955Z" stroke="#2F353D" stroke-width="2" stroke-linecap="round" stroke-linejoin="round"/>
</svg>
