<svg width="36" height="35" viewBox="0 0 36 35" fill="none" xmlns="http://www.w3.org/2000/svg">
<path opacity="0.1" d="M24.0669 2.1875H12.0794C9.49299 2.21791 7.02359 3.25771 5.20966 5.08021C3.39572 6.9027 2.38437 9.36007 2.3961 11.9165V23.4472C2.39573 24.6814 2.6333 25.9043 3.0961 27.0506C3.25802 27.464 3.45309 27.8641 3.67943 28.2469L3.82526 28.5063C4.01485 28.809 4.20443 29.0828 4.4086 29.3567L4.65651 29.6738C4.87526 29.9332 5.1086 30.1783 5.34193 30.4089L5.76485 30.798L6.31901 31.2304C6.52318 31.389 6.74193 31.5331 6.96068 31.6772C7.17943 31.8214 7.41276 31.9511 7.63151 32.0664L8.09818 32.297C8.40443 32.4267 8.71068 32.5565 9.03151 32.6574L9.33776 32.7582C9.692 32.862 10.0524 32.9438 10.4169 33.0033H10.7669C11.1968 33.0655 11.6304 33.0992 12.0648 33.1042H24.0523C26.6287 33.0777 29.0908 32.0494 30.9059 30.2421C32.7209 28.4347 33.7427 25.9937 33.7503 23.4472V11.9165C33.762 9.36007 32.7506 6.9027 30.9367 5.08021C29.1228 3.25771 26.6534 2.21791 24.0669 2.1875Z" fill="#1279F2"/>
<path d="M23.9937 1.82275H12.0062C9.41974 1.85352 6.95035 2.90559 5.13642 4.74957C3.32248 6.59356 2.31112 9.0799 2.32285 11.6665V23.3332C2.32248 24.5819 2.56005 25.8192 3.02285 26.979C3.18478 27.3974 3.37984 27.8021 3.60619 28.1894L3.75202 28.4519C3.9416 28.7582 4.13119 29.0353 4.33536 29.3123L4.58327 29.6332C4.80202 29.8957 5.03535 30.1436 5.26869 30.3769L5.6916 30.7707L6.24577 31.2082C6.44994 31.3686 6.66869 31.5144 6.88744 31.6603C7.10619 31.8061 7.33952 31.9373 7.55827 32.054L8.02494 32.2873C8.33119 32.4186 8.63744 32.5498 8.95827 32.6519L9.26452 32.754C9.61876 32.8589 9.97917 32.9417 10.3437 33.0019H10.6937C11.1236 33.0649 11.5572 33.099 11.9916 33.104H23.9791C26.5555 33.0772 29.0176 32.0368 30.8326 30.2082C32.6476 28.3795 33.6695 25.9096 33.677 23.3332V11.6665C33.6888 9.0799 32.6774 6.59356 30.8635 4.74957C29.0495 2.90559 26.5801 1.85352 23.9937 1.82275ZM31.4895 23.3332C31.4991 24.3271 31.3129 25.3132 30.9414 26.2352C30.5699 27.1572 30.0204 27.9969 29.3243 28.7065C28.6283 29.4161 27.7993 29.9817 26.8846 30.3709C25.97 30.7601 24.9876 30.9653 23.9937 30.9748H12.0062C11.5708 30.9655 11.1368 30.9216 10.7083 30.8436H10.402C9.52272 30.6412 8.68759 30.2804 7.93744 29.779L7.7916 29.604C7.44293 29.3551 7.11606 29.077 6.81452 28.7728C6.4595 28.446 6.13265 28.0898 5.83744 27.7082L5.6916 27.4603C5.58952 27.2998 5.50202 27.1103 5.41452 26.9353L9.78952 23.3915C10.4342 22.8626 11.2483 22.5846 12.0818 22.6087C12.9153 22.6328 13.712 22.9575 14.3249 23.5228C14.7515 23.9134 15.2514 24.2156 15.7955 24.4119C16.3397 24.6081 16.9173 24.6945 17.4951 24.666C18.0728 24.6375 18.6392 24.4947 19.1614 24.2459C19.6836 23.9971 20.1513 23.6472 20.5374 23.2165L23.4541 20.0373C23.7719 19.6837 24.1588 19.3988 24.5908 19.2002C25.0229 19.0016 25.491 18.8935 25.9664 18.8826C26.4418 18.8716 26.9144 18.9581 27.3551 19.1366C27.7958 19.3152 28.1953 19.582 28.5291 19.9207L31.5333 22.9686L31.4895 23.3332ZM31.4895 19.7894L30.0312 18.3311C29.4899 17.7813 28.8421 17.3477 28.1274 17.0568C27.4128 16.766 26.6463 16.6239 25.8749 16.6394C25.1036 16.655 24.3438 16.8302 23.6436 17.154C22.9433 17.4777 22.3177 17.9431 21.8062 18.5207L18.8895 21.6853C18.6955 21.9038 18.4599 22.0815 18.1966 22.208C17.9332 22.3345 17.6472 22.4074 17.3554 22.4223C17.0636 22.4373 16.7717 22.394 16.4968 22.295C16.2219 22.196 15.9694 22.0432 15.7541 21.8457C14.7625 20.9495 13.4844 20.4354 12.1485 20.3953C10.8126 20.3552 9.50596 20.7918 8.46244 21.6269L4.6416 24.6748C4.55387 24.233 4.50991 23.7836 4.51035 23.3332V11.6665C4.49869 9.66415 5.28097 7.73877 6.68589 6.31198C8.09082 4.88518 10.0039 4.07326 12.0062 4.054H23.9937C25.996 4.07326 27.9091 4.88518 29.314 6.31198C30.7189 7.73877 31.5012 9.66415 31.4895 11.6665V19.7894ZM11.8604 7.75817C11.0498 7.74369 10.2533 7.97082 9.57226 8.41061C8.89123 8.8504 8.35653 9.48295 8.03626 10.2277C7.71599 10.9724 7.62465 11.7957 7.77388 12.5925C7.9231 13.3893 8.30614 14.1237 8.87419 14.7021C9.44225 15.2805 10.1696 15.6767 10.9636 15.8402C11.7576 16.0038 12.5824 15.9273 13.3328 15.6205C14.0831 15.3137 14.7252 14.7905 15.1772 14.1175C15.6292 13.4445 15.8706 12.6522 15.8708 11.8415C15.8765 11.3098 15.7773 10.7822 15.5787 10.2889C15.3801 9.79565 15.0861 9.34645 14.7135 8.96708C14.3409 8.58771 13.897 8.28564 13.4074 8.07818C12.9178 7.87073 12.3921 7.76198 11.8604 7.75817ZM11.8604 13.7082C11.4875 13.7286 11.1171 13.6367 10.797 13.4444C10.4769 13.2521 10.2218 12.9682 10.0647 12.6294C9.90769 12.2906 9.85585 11.9125 9.91593 11.544C9.97601 11.1754 10.1452 10.8333 10.4018 10.562C10.6583 10.2906 10.9903 10.1024 11.3549 10.0217C11.7195 9.94104 12.0999 9.97156 12.447 10.1093C12.7941 10.2471 13.0919 10.4858 13.3018 10.7946C13.5118 11.1034 13.6244 11.4681 13.6249 11.8415C13.6292 12.3204 13.4479 12.7824 13.1188 13.1305C12.7898 13.4785 12.3388 13.6856 11.8604 13.7082Z" fill="#1279F2"/>
</svg>
