<svg width="14" height="14" viewBox="0 0 14 14" fill="none" xmlns="http://www.w3.org/2000/svg">
<path d="M6.66823 7.81855C7.41001 7.81855 8.13513 7.5985 8.75181 7.18625C9.36849 6.774 9.84902 6.18808 10.1326 5.50264C10.4162 4.81719 10.49 4.06303 10.3448 3.33559C10.1996 2.60816 9.8419 1.94014 9.31692 1.41608C8.79194 0.892018 8.1233 0.535469 7.39561 0.391552C6.66791 0.247635 5.91389 0.32282 5.22894 0.60759C4.54399 0.892361 3.95892 1.37392 3.54775 1.99132C3.13658 2.60873 2.91781 3.33423 2.91911 4.07601C2.91911 4.56804 3.01613 5.05524 3.20462 5.50974C3.39311 5.96423 3.66938 6.3771 4.0176 6.72471C4.36582 7.07233 4.77918 7.34786 5.234 7.53556C5.68883 7.72325 6.1762 7.81942 6.66823 7.81855ZM6.66823 1.3135C7.2146 1.3135 7.7487 1.47552 8.203 1.77907C8.65729 2.08262 9.01137 2.51406 9.22045 3.01884C9.42954 3.52363 9.48425 4.07907 9.37766 4.61495C9.27106 5.15082 9.00796 5.64305 8.62162 6.0294C8.23527 6.41574 7.74304 6.67885 7.20717 6.78544C6.67129 6.89203 6.11585 6.83732 5.61106 6.62823C5.10628 6.41915 4.67484 6.06507 4.37129 5.61078C4.06774 5.15649 3.90572 4.62238 3.90572 4.07601C3.90572 3.34335 4.19677 2.64069 4.71484 2.12262C5.23291 1.60455 5.93557 1.3135 6.66823 1.3135ZM10.5752 7.4831C10.1513 7.48224 9.73188 7.5695 9.34351 7.73934C8.95513 7.90918 8.60631 8.1579 8.31916 8.46971C7.77592 8.34135 7.21984 8.27516 6.66165 8.27239C3.51765 8.27239 0.801188 10.318 0.34077 13.041C0.329471 13.1045 0.330921 13.1697 0.345034 13.2327C0.359147 13.2956 0.385643 13.3552 0.422979 13.4078C0.460316 13.4605 0.507747 13.5051 0.562514 13.5393C0.617281 13.5734 0.67829 13.5963 0.741991 13.6067H0.827498C0.943307 13.6056 1.05515 13.5644 1.14393 13.49C1.2327 13.4156 1.2929 13.3127 1.31423 13.1989C1.68914 10.9494 3.99123 9.25243 6.66165 9.25243C7.01894 9.2559 7.37534 9.2889 7.72719 9.35109C7.55783 9.7367 7.47047 10.1533 7.47067 10.5745C7.47067 11.1872 7.65236 11.7862 7.99277 12.2956C8.33318 12.8051 8.81701 13.2021 9.38309 13.4366C9.94917 13.6711 10.5721 13.7324 11.173 13.6129C11.774 13.4934 12.326 13.1983 12.7592 12.7651C13.1925 12.3318 13.4875 11.7798 13.6071 11.1789C13.7266 10.5779 13.6652 9.95502 13.4308 9.38895C13.1963 8.82287 12.7992 8.33903 12.2898 7.99863C11.7803 7.65822 11.1813 7.47653 10.5686 7.47653L10.5752 7.4831ZM10.5752 12.6924C10.1573 12.6937 9.74849 12.571 9.40042 12.3398C9.05234 12.1086 8.7807 11.7793 8.61989 11.3936C8.45908 11.0079 8.41633 10.5832 8.49705 10.1732C8.57778 9.76321 8.77834 9.38639 9.07335 9.09045C9.36837 8.79452 9.74456 8.59278 10.1543 8.51078C10.564 8.42878 10.9889 8.4702 11.3751 8.62981C11.7613 8.78942 12.0914 9.06003 12.3237 9.40738C12.556 9.75473 12.68 10.1632 12.68 10.5811C12.68 11.1399 12.4584 11.6759 12.0639 12.0717C11.6694 12.4675 11.134 12.6907 10.5752 12.6924ZM11.8907 9.56156C11.9858 9.64008 12.0471 9.75218 12.0617 9.87464C12.0764 9.9971 12.0435 10.1205 11.9696 10.2193L10.8646 11.6334C10.818 11.6919 10.7591 11.7393 10.692 11.7723C10.6249 11.8053 10.5513 11.823 10.4765 11.8242C10.4026 11.8239 10.3296 11.8066 10.2635 11.7735C10.1973 11.7404 10.1396 11.6925 10.0951 11.6334L9.29261 10.6139C9.22107 10.5138 9.19012 10.3903 9.20599 10.2683C9.22185 10.1462 9.28335 10.0347 9.37812 9.95621C9.47691 9.88237 9.60032 9.84938 9.72278 9.86407C9.84524 9.87877 9.95734 9.94002 10.0359 10.0351L10.4502 10.5679L11.2001 9.63391C11.2812 9.53369 11.3989 9.46977 11.5271 9.4562C11.6554 9.44264 11.7838 9.48053 11.8841 9.56156H11.8907Z" fill="#1B84FF"/>
</svg>
