<svg width="16" height="15" viewBox="0 0 16 15" fill="none" xmlns="http://www.w3.org/2000/svg">
<path d="M7.99781 14.5013C7.49743 14.5009 7.0177 14.3018 6.66408 13.9478L5.7238 13.0075C5.7062 12.9903 5.68534 12.9767 5.66245 12.9675C5.63956 12.9584 5.61508 12.9538 5.59043 12.9542H4.2567C3.75734 12.9524 3.27903 12.7528 2.92655 12.3991C2.57406 12.0453 2.37615 11.5663 2.37615 11.067V9.73323C2.3765 9.70858 2.37197 9.6841 2.36282 9.66121C2.35366 9.63832 2.34006 9.61747 2.3228 9.59986L1.38252 8.66625C1.03068 8.31153 0.833252 7.83215 0.833252 7.33252C0.833252 6.8329 1.03068 6.35352 1.38252 5.9988L2.3228 5.05852C2.34006 5.04091 2.35366 5.02006 2.36282 4.99717C2.37197 4.97428 2.3765 4.9498 2.37615 4.92515V3.59142C2.37792 3.09206 2.57753 2.61374 2.93126 2.26126C3.28499 1.90878 3.764 1.71086 4.26337 1.71087H5.5971C5.62175 1.71122 5.64623 1.70669 5.66912 1.69753C5.69201 1.68838 5.71286 1.67478 5.73047 1.65752L6.66408 0.717242C7.0188 0.365395 7.49818 0.167969 7.99781 0.167969C8.49743 0.167969 8.97681 0.365395 9.33153 0.717242L10.2718 1.65752C10.2894 1.67478 10.3103 1.68838 10.3332 1.69753C10.3561 1.70669 10.3805 1.71122 10.4052 1.71087H11.7389C12.2383 1.71263 12.7166 1.91224 13.0691 2.26597C13.4215 2.61971 13.6195 3.09872 13.6195 3.59809V4.93182C13.6191 4.95647 13.6236 4.98095 13.6328 5.00384C13.642 5.02673 13.6556 5.04758 13.6728 5.06519L14.6131 5.9988C14.9649 6.35352 15.1624 6.8329 15.1624 7.33252C15.1624 7.83215 14.9649 8.31153 14.6131 8.66625L13.6728 9.60653C13.6556 9.62414 13.642 9.64499 13.6328 9.66788C13.6236 9.69077 13.6191 9.71525 13.6195 9.7399V11.0736C13.6195 11.3215 13.5706 11.5669 13.4758 11.7958C13.381 12.0248 13.242 12.2328 13.0667 12.4081C12.8915 12.5833 12.6834 12.7224 12.4544 12.8172C12.2255 12.912 11.9801 12.9608 11.7322 12.9608H10.3985C10.3739 12.9605 10.3494 12.965 10.3265 12.9742C10.3036 12.9833 10.2828 12.9969 10.2651 13.0142L9.33153 13.9478C8.97791 14.3018 8.49818 14.5009 7.99781 14.5013ZM4.26337 2.71116C4.02869 2.71291 3.8041 2.80691 3.63815 2.97287C3.47219 3.13882 3.37819 3.3634 3.37645 3.59809V4.93182C3.37817 5.088 3.34835 5.24293 3.28876 5.38731C3.22918 5.53169 3.14106 5.66256 3.02968 5.77206L2.0894 6.70567C1.92325 6.87198 1.82993 7.09744 1.82993 7.33252C1.82993 7.5676 1.92325 7.79307 2.0894 7.95937L3.02968 8.89965C3.14075 9.00939 3.22867 9.1403 3.28823 9.28463C3.3478 9.42896 3.37779 9.58377 3.37645 9.7399V11.0736C3.37993 11.3072 3.47469 11.53 3.64046 11.6946C3.80623 11.8591 4.02983 11.9522 4.26337 11.9539H5.5971C5.75328 11.9522 5.90821 11.982 6.05259 12.0416C6.19698 12.1012 6.32784 12.1893 6.43735 12.3007L7.37762 13.2409C7.54393 13.4071 7.7694 13.5004 8.00448 13.5004C8.23956 13.5004 8.46502 13.4071 8.63133 13.2409L9.5716 12.3007C9.68134 12.1896 9.81225 12.1017 9.95658 12.0421C10.1009 11.9825 10.2557 11.9525 10.4119 11.9539H11.7456C11.9803 11.9521 12.2048 11.8581 12.3708 11.6922C12.5368 11.5262 12.6308 11.3016 12.6325 11.067V9.73323C12.6308 9.57705 12.6606 9.42212 12.7202 9.27774C12.7798 9.13336 12.8679 9.00249 12.9793 8.89298L13.9196 7.95271C14.0857 7.7864 14.179 7.56094 14.179 7.32585C14.179 7.09077 14.0857 6.86531 13.9196 6.699L12.9659 5.7654C12.7447 5.5416 12.6201 5.23986 12.6192 4.92515V3.59142C12.6157 3.35789 12.5209 3.13501 12.3551 2.97049C12.1894 2.80596 11.9658 2.71288 11.7322 2.71116H10.3985C10.2424 2.71251 10.0876 2.68251 9.94324 2.62295C9.79891 2.56339 9.668 2.47546 9.55827 2.36439L8.62466 1.42412C8.45835 1.25797 8.23289 1.16464 7.99781 1.16464C7.76273 1.16464 7.53726 1.25797 7.37096 1.42412L6.43068 2.36439C6.32117 2.47577 6.19031 2.56389 6.04592 2.62348C5.90154 2.68307 5.74662 2.71289 5.59043 2.71116H4.26337ZM7.511 9.33311L10.7853 6.13884C10.879 6.04506 10.9316 5.91794 10.9316 5.7854C10.9316 5.65286 10.879 5.52574 10.7853 5.43196C10.6915 5.3383 10.5644 5.28569 10.4319 5.28569C10.2993 5.28569 10.1722 5.3383 10.0784 5.43196L7.16423 8.26613L5.9372 7.0191C5.89185 6.96963 5.83701 6.92979 5.77594 6.90196C5.71487 6.87413 5.64883 6.85887 5.58174 6.85709C5.51465 6.85532 5.44789 6.86707 5.38544 6.89163C5.32299 6.9162 5.26612 6.95308 5.21821 7.00009C5.17031 7.04709 5.13236 7.10326 5.10662 7.16524C5.08088 7.22722 5.06788 7.29374 5.06839 7.36085C5.06889 7.42796 5.0829 7.49428 5.10958 7.55586C5.13625 7.61745 5.17505 7.67303 5.22366 7.7193L6.80412 9.33311C6.84997 9.38078 6.90481 9.41887 6.96548 9.4452C7.02615 9.47153 7.09143 9.48556 7.15756 9.48649C7.22375 9.48594 7.28915 9.47207 7.34986 9.44572C7.41058 9.41937 7.46538 9.38107 7.511 9.33311Z" fill="#1B84FF"/>
</svg>
