<svg width="16" height="16" viewBox="0 0 16 16" fill="none" xmlns="http://www.w3.org/2000/svg">
<path d="M5.91992 8.50732V8.60732C5.91992 9.03344 6.0892 9.4421 6.3905 9.74341C6.69181 10.0447 7.10047 10.214 7.52659 10.214H10.5799C10.7125 10.214 10.8397 10.2667 10.9335 10.3604C11.0272 10.4542 11.0799 10.5814 11.0799 10.714C11.0799 10.8466 11.0272 10.9738 10.9335 11.0675C10.8397 11.1613 10.7125 11.214 10.5799 11.214H7.52659C6.83526 11.214 6.17224 10.9394 5.6834 10.4505C5.19455 9.96167 4.91992 9.29865 4.91992 8.60732V7.39399C4.91992 6.70266 5.19455 6.03964 5.6834 5.5508C6.17224 5.06195 6.83526 4.78732 7.52659 4.78732H10.5799C10.7125 4.78732 10.8397 4.84 10.9335 4.93377C11.0272 5.02754 11.0799 5.15471 11.0799 5.28732C11.0799 5.41993 11.0272 5.54711 10.9335 5.64087C10.8397 5.73464 10.7125 5.78732 10.5799 5.78732H7.52659C7.10047 5.78732 6.69181 5.95659 6.3905 6.2579C6.0892 6.55921 5.91992 6.96787 5.91992 7.39399V7.50732H10.5866C10.7192 7.50732 10.8464 7.56 10.9401 7.65377C11.0339 7.74754 11.0866 7.87471 11.0866 8.00732C11.0866 8.13993 11.0339 8.26711 10.9401 8.36087C10.8464 8.45464 10.7192 8.50732 10.5866 8.50732H5.91992ZM15.1666 8.00065C15.1666 6.58322 14.7463 5.19762 13.9588 4.01907C13.1713 2.84052 12.052 1.92195 10.7425 1.37952C9.43295 0.83709 7.99197 0.695166 6.60177 0.971693C5.21158 1.24822 3.9346 1.93078 2.93232 2.93306C1.93005 3.93533 1.24749 5.21231 0.970961 6.60251C0.694433 7.9927 0.836357 9.43368 1.37879 10.7432C1.92121 12.0528 2.83978 13.172 4.01834 13.9595C5.19689 14.747 6.58249 15.1673 7.99992 15.1673C9.9001 15.1656 11.7219 14.4099 13.0656 13.0663C14.4092 11.7227 15.1648 9.90083 15.1666 8.00065ZM14.1666 8.00065C14.1666 9.22031 13.8049 10.4126 13.1273 11.4267C12.4497 12.4408 11.4866 13.2312 10.3598 13.6979C9.23299 14.1647 7.99308 14.2868 6.79686 14.0488C5.60065 13.8109 4.50185 13.2236 3.63943 12.3611C2.77701 11.4987 2.18969 10.3999 1.95175 9.20371C1.7138 8.0075 1.83592 6.76758 2.30266 5.64077C2.76941 4.51396 3.5598 3.55086 4.57391 2.87326C5.58801 2.19566 6.78027 1.83399 7.99992 1.83399C9.63488 1.83575 11.2024 2.48602 12.3585 3.64211C13.5146 4.7982 14.1648 6.36569 14.1666 8.00065Z" fill="#1B84FF"/>
</svg>
