<svg width="16" height="16" viewBox="0 0 16 16" fill="none" xmlns="http://www.w3.org/2000/svg">
<path d="M11.6726 15.1638C10.8548 15.1646 10.0628 14.8783 9.43455 14.3548C8.80633 13.8312 8.38185 13.1038 8.23515 12.2993C8.19504 12.0907 8.17496 11.8788 8.1752 11.6664C8.1752 11.5339 8.22784 11.4068 8.32154 11.3132C8.41524 11.2195 8.54232 11.1668 8.67483 11.1668C8.80734 11.1668 8.93442 11.2195 9.02812 11.3132C9.12181 11.4068 9.17445 11.5339 9.17445 11.6664C9.17423 11.8183 9.18761 11.9699 9.21442 12.1194C9.29661 12.5627 9.49723 12.9755 9.795 13.314C10.0928 13.6525 10.4766 13.9041 10.9058 14.0422C11.335 14.1802 11.7935 14.1995 12.2328 14.0981C12.6721 13.9966 13.0757 13.7782 13.4009 13.466C13.7261 13.1537 13.9607 12.7593 14.0799 12.3245C14.1991 11.8897 14.1984 11.4308 14.0779 10.9963C13.9574 10.5619 13.7216 10.1682 13.3955 9.85688C13.0694 9.54561 12.6651 9.32839 12.2255 9.22826C12.0439 9.1886 11.8585 9.1685 11.6726 9.16831C11.5401 9.16831 11.413 9.11567 11.3193 9.02197C11.2256 8.92827 11.173 8.80119 11.173 8.66868C11.173 8.53617 11.2256 8.40909 11.3193 8.31539C11.413 8.22169 11.5401 8.16905 11.6726 8.16905C11.9305 8.16749 12.1876 8.19657 12.4387 8.25566C13.2769 8.44574 14.0159 8.93787 14.5144 9.6381C15.0129 10.3383 15.2361 11.1976 15.1413 12.0519C15.0466 12.9062 14.6405 13.6958 14.0007 14.2698C13.3609 14.8437 12.5321 15.162 11.6726 15.1638ZM4.34473 15.1638C3.47792 15.1673 2.6407 14.8488 1.99542 14.27C1.35014 13.6912 0.942788 12.8935 0.852348 12.0314C0.761909 11.1693 0.99483 10.3043 1.50594 9.60424C2.01706 8.90415 2.76995 8.41881 3.6186 8.24233C3.85772 8.19457 4.10089 8.17003 4.34473 8.16905C4.47724 8.16905 4.60432 8.22169 4.69802 8.31539C4.79172 8.40909 4.84436 8.53617 4.84436 8.66868C4.84436 8.80119 4.79172 8.92827 4.69802 9.02197C4.60432 9.11567 4.47724 9.16831 4.34473 9.16831C4.17023 9.16955 3.99624 9.1874 3.82512 9.2216C3.38276 9.316 2.97433 9.52874 2.64341 9.8371C2.3125 10.1455 2.07152 10.5379 1.94618 10.9725C1.82084 11.4071 1.81586 11.8676 1.93175 12.3048C2.04765 12.742 2.28008 13.1396 2.60424 13.455C2.9284 13.7705 3.33213 13.992 3.77234 14.096C4.21255 14.1999 4.67272 14.1824 5.10376 14.0453C5.5348 13.9082 5.92052 13.6566 6.21977 13.3174C6.51902 12.9783 6.72056 12.5642 6.80289 12.1194C6.82971 11.9699 6.84308 11.8183 6.84286 11.6664C6.84286 11.5339 6.8955 11.4068 6.9892 11.3132C7.0829 11.2195 7.20998 11.1668 7.34249 11.1668C7.475 11.1668 7.60208 11.2195 7.69578 11.3132C7.78948 11.4068 7.84211 11.5339 7.84211 11.6664C7.84235 11.8788 7.82228 12.0907 7.78216 12.2993C7.63546 13.1038 7.21098 13.8312 6.58277 14.3548C5.95455 14.8783 5.16248 15.1646 4.34473 15.1638ZM11.6726 7.83597C11.5401 7.83597 11.413 7.78333 11.3193 7.68963C11.2256 7.59593 11.173 7.46885 11.173 7.33634C11.173 7.20383 11.2256 7.07675 11.3193 6.98305C11.413 6.88936 11.5401 6.83672 11.6726 6.83672C11.8427 6.83583 12.0123 6.81798 12.1789 6.78342C12.6186 6.69238 13.0257 6.48449 13.3572 6.18162C13.6888 5.87876 13.9326 5.49212 14.0629 5.0624C14.1933 4.63268 14.2054 4.17576 14.098 3.73973C13.9906 3.30369 13.7677 2.90467 13.4527 2.58465C13.1376 2.26463 12.7422 2.03545 12.3079 1.92122C11.8736 1.80698 11.4165 1.81192 10.9848 1.93552C10.5531 2.05912 10.1627 2.29681 9.85465 2.62357C9.54661 2.95032 9.33235 3.35407 9.23441 3.79232C9.1944 3.9694 9.17429 4.15038 9.17445 4.33192C9.17445 4.46443 9.12181 4.59151 9.02812 4.68521C8.93442 4.77891 8.80734 4.83155 8.67483 4.83155C8.54232 4.83155 8.41524 4.77891 8.32154 4.68521C8.22784 4.59151 8.1752 4.46443 8.1752 4.33192C8.17542 4.07669 8.20221 3.82217 8.25514 3.57249C8.39159 2.95863 8.69102 2.39292 9.12191 1.93491C9.55279 1.47691 10.0992 1.14354 10.7036 0.969926C11.308 0.796307 11.948 0.788856 12.5563 0.948356C13.1646 1.10786 13.7186 1.42841 14.16 1.87626C14.6014 2.32411 14.914 2.8827 15.0647 3.49321C15.2154 4.10372 15.1987 4.74357 15.0164 5.3454C14.834 5.94722 14.4928 6.48876 14.0286 6.91299C13.5645 7.33722 12.9945 7.62846 12.3787 7.75603C12.1466 7.80605 11.91 7.83283 11.6726 7.83597ZM4.34473 7.83597C4.10089 7.835 3.85772 7.81046 3.6186 7.76269C2.76995 7.58621 2.01706 7.10087 1.50594 6.40078C0.99483 5.70069 0.761909 4.83573 0.852348 3.97365C0.942788 3.11157 1.35014 2.31379 1.99542 1.73501C2.6407 1.15623 3.47792 0.837707 4.34473 0.841197C5.13968 0.845214 5.90992 1.1179 6.53033 1.61495C7.15074 2.112 7.58486 2.80422 7.76217 3.57915C7.8151 3.82883 7.8419 4.08335 7.84211 4.33858C7.84211 4.47109 7.78948 4.59817 7.69578 4.69187C7.60208 4.78557 7.475 4.83821 7.34249 4.83821C7.20998 4.83821 7.0829 4.78557 6.9892 4.69187C6.8955 4.59817 6.84286 4.47109 6.84286 4.33858C6.84303 4.15705 6.82292 3.97606 6.78291 3.79899C6.6846 3.36157 6.47039 2.95867 6.16274 2.63255C5.8551 2.30643 5.46536 2.06911 5.03442 1.94548C4.60347 1.82186 4.14719 1.81649 3.71345 1.92993C3.27972 2.04337 2.8845 2.27145 2.56926 2.59024C2.25403 2.90903 2.03039 3.30677 1.92181 3.74175C1.81323 4.17674 1.82371 4.63292 1.95215 5.06246C2.08059 5.49199 2.32226 5.87905 2.65181 6.18302C2.98135 6.48699 3.38663 6.69668 3.82512 6.79008C3.99624 6.82429 4.17023 6.84213 4.34473 6.84338C4.47724 6.84338 4.60432 6.89602 4.69802 6.98972C4.79172 7.08341 4.84436 7.2105 4.84436 7.343C4.84436 7.47551 4.79172 7.6026 4.69802 7.69629C4.60432 7.78999 4.47724 7.84263 4.34473 7.84263V7.83597ZM11.6726 13.1653C11.3034 13.166 10.947 13.0304 10.6717 12.7845C10.3963 12.5387 10.2214 12.1998 10.1804 11.833L9.86727 11.5132C9.54935 11.1804 9.12994 10.9625 8.67483 10.8937C8.21936 10.8337 7.75799 10.8337 7.30252 10.8937C6.85538 10.9648 6.4437 11.18 6.13006 11.5066L5.81696 11.8263C5.78641 12.1073 5.67704 12.3739 5.50147 12.5954C5.32589 12.8169 5.09127 12.9842 4.82467 13.0781C4.55808 13.172 4.27037 13.1886 3.99476 13.1259C3.71914 13.0633 3.46685 12.924 3.26699 12.7242C3.06714 12.5243 2.92786 12.272 2.86524 11.9964C2.80261 11.7208 2.81919 11.4331 2.91306 11.1665C3.00694 10.8999 3.17427 10.6653 3.39577 10.4897C3.61726 10.3141 3.88388 10.2048 4.16486 10.1742L4.48462 9.86112C4.82238 9.54513 5.04509 9.12551 5.11748 8.66868C5.17746 8.21321 5.17746 7.75184 5.11748 7.29637C5.04635 6.84923 4.83115 6.43755 4.50461 6.12392L4.18485 5.81082C3.90288 5.78055 3.63527 5.67092 3.41312 5.49465C3.19097 5.31837 3.02338 5.08269 2.92982 4.81498C2.83627 4.54727 2.82058 4.2585 2.88458 3.98223C2.94858 3.70595 3.08964 3.4535 3.29139 3.2542C3.49314 3.05489 3.74728 2.91691 4.02432 2.85627C4.30135 2.79564 4.5899 2.81484 4.85646 2.91165C5.12301 3.00846 5.35664 3.1789 5.53019 3.40319C5.70375 3.62747 5.81012 3.89638 5.83695 4.1787L6.15005 4.49846C6.46892 4.82887 6.88822 5.04437 7.34249 5.11134C7.79796 5.17131 8.25933 5.17131 8.7148 5.11134C9.16194 5.0402 9.57362 4.825 9.88725 4.49846L10.2004 4.1787C10.2309 3.89772 10.3403 3.6311 10.5158 3.4096C10.6914 3.18811 10.926 3.02078 11.1926 2.9269C11.4592 2.83303 11.7469 2.81645 12.0226 2.87908C12.2982 2.9417 12.5505 3.08098 12.7503 3.28083C12.9502 3.48069 13.0895 3.73298 13.1521 4.0086C13.2147 4.28421 13.1981 4.57192 13.1043 4.83851C13.0104 5.10511 12.843 5.33973 12.6215 5.51531C12.4001 5.69088 12.1334 5.80025 11.8525 5.8308L11.5327 6.1439C11.1962 6.46082 10.9737 6.88 10.8998 7.33634C10.8399 7.79181 10.8399 8.25318 10.8998 8.70865C10.971 9.15579 11.1862 9.56747 11.5127 9.88111L11.8325 10.1942C12.2179 10.2303 12.5745 10.4141 12.8275 10.7072C13.0804 11.0003 13.2102 11.38 13.1895 11.7666C13.1688 12.1532 12.9994 12.5168 12.7166 12.7813C12.4338 13.0457 12.0597 13.1905 11.6726 13.1853V13.1653ZM8.00866 9.83448C8.28261 9.83564 8.55625 9.85344 8.82804 9.88777C9.49151 9.99174 10.1037 10.3072 10.5734 10.7871L11.0331 11.2468C11.081 11.2961 11.1186 11.3545 11.1438 11.4186C11.1689 11.4826 11.1811 11.551 11.1796 11.6198C11.1796 11.6198 11.1796 11.6798 11.1796 11.6931C11.1897 11.8186 11.2467 11.9356 11.3394 12.0208C11.432 12.106 11.5534 12.1531 11.6792 12.1527C11.8118 12.1527 11.9388 12.1001 12.0325 12.0064C12.1262 11.9127 12.1789 11.7856 12.1789 11.6531C12.1789 11.5206 12.1262 11.3935 12.0325 11.2998C11.9388 11.2061 11.8118 11.1535 11.6792 11.1535H11.606C11.4735 11.1534 11.3465 11.1007 11.2529 11.0069L10.7932 10.5473C10.3133 10.0775 9.99789 9.46538 9.89392 8.80191C9.82702 8.25993 9.82702 7.71178 9.89392 7.1698C10.0056 6.50989 10.3254 5.90299 10.8066 5.43776L11.2662 4.97811C11.3147 4.92891 11.3729 4.89045 11.4372 4.8652C11.5014 4.83995 11.5703 4.82849 11.6393 4.83155H11.7192C11.8435 4.8199 11.9589 4.76216 12.0427 4.6697C12.1266 4.57723 12.1728 4.45673 12.1722 4.33192C12.1722 4.19941 12.1196 4.07233 12.0259 3.97863C11.9322 3.88493 11.8051 3.83229 11.6726 3.83229C11.5401 3.83229 11.413 3.88493 11.3193 3.97863C11.2256 4.07233 11.173 4.19941 11.173 4.33192C11.1776 4.40553 11.1676 4.47933 11.1436 4.54907C11.1196 4.61881 11.082 4.68311 11.0331 4.73828L10.5734 5.19794C10.1045 5.67904 9.49196 5.99468 8.82804 6.09727C8.28382 6.16391 7.7335 6.16391 7.18927 6.09727C6.52663 5.99513 5.91457 5.68209 5.44391 5.2046L4.98425 4.74495C4.93634 4.69556 4.89871 4.63716 4.87356 4.57312C4.8484 4.50908 4.83621 4.44068 4.83769 4.37189C4.83769 4.37189 4.83769 4.31194 4.83769 4.29861C4.82763 4.17315 4.77057 4.05611 4.67794 3.97089C4.58531 3.88567 4.46393 3.83855 4.33807 3.83896C4.20609 3.84068 4.08001 3.89387 3.98669 3.9872C3.89336 4.08053 3.84017 4.20661 3.83844 4.33858C3.84193 4.47346 3.89843 4.60154 3.99569 4.69506C4.09295 4.78858 4.22314 4.84001 4.35805 4.83821C4.49971 4.83546 4.63737 4.8853 4.74443 4.97811L5.20409 5.43776C5.68402 5.9075 5.99944 6.51966 6.10342 7.18312C6.17031 7.72511 6.17031 8.27326 6.10342 8.81524C6.00127 9.47981 5.68834 10.094 5.21075 10.5673L4.75109 11.0269C4.65094 11.1231 4.51685 11.1757 4.37804 11.1735H4.2981C4.17383 11.1851 4.05842 11.2429 3.97458 11.3353C3.89075 11.4278 3.84456 11.5483 3.8451 11.6731C3.8451 11.8056 3.89774 11.9327 3.99144 12.0264C4.08514 12.1201 4.21222 12.1727 4.34473 12.1727C4.47724 12.1727 4.60432 12.1201 4.69802 12.0264C4.79172 11.9327 4.84436 11.8056 4.84436 11.6731C4.83974 11.5995 4.84973 11.5257 4.87374 11.456C4.89774 11.3862 4.9353 11.3219 4.98425 11.2667L5.44391 10.8071C5.91278 10.326 6.52536 10.0103 7.18927 9.90775C7.46093 9.87119 7.73457 9.85117 8.00866 9.8478V9.83448Z" fill="#1B84FF"/>
</svg>
