<svg width="14" height="16" viewBox="0 0 14 16" fill="none" xmlns="http://www.w3.org/2000/svg">
<path d="M6.99995 15.2008C6.71828 15.1971 6.44028 15.1392 6.18262 15.0303C5.92495 14.9215 5.69293 14.7641 5.50046 14.5674L4.30785 13.3341C4.21248 13.2359 4.09705 13.1574 3.9687 13.1035C3.84034 13.0496 3.70178 13.0215 3.56159 13.0208H2.75954C2.08126 13.019 1.43129 12.7607 0.951671 12.3022C0.472053 11.8438 0.201792 11.2225 0.199951 10.5741V3.24078C0.203628 2.59358 0.4747 1.97399 0.95412 1.51697C1.43354 1.05995 2.08246 0.80253 2.75954 0.800781H11.2404C11.9186 0.802541 12.5686 1.06088 13.0482 1.51934C13.5279 1.97779 13.7981 2.59909 13.8 3.24745V10.5808C13.7981 11.2291 13.5279 11.8504 13.0482 12.3089C12.5686 12.7673 11.9186 13.0257 11.2404 13.0274H10.4871C10.2219 13.0395 9.97185 13.1494 9.78969 13.3341L8.52734 14.5941C8.32924 14.7891 8.09163 14.9435 7.82902 15.0478C7.56641 15.1521 7.28431 15.2042 6.99995 15.2008ZM2.75954 1.80078C2.35815 1.80078 1.9732 1.9532 1.68938 2.2245C1.40556 2.4958 1.24611 2.86377 1.24611 3.24745V10.5808C1.25342 10.9598 1.41609 11.321 1.69912 11.5865C1.98216 11.8521 2.36294 12.0008 2.75954 12.0008H3.56159C3.84818 12.0069 4.1304 12.0692 4.39074 12.1839C4.65108 12.2986 4.88399 12.4632 5.07503 12.6674L6.26067 13.8941C6.35532 13.9909 6.4698 14.0681 6.59697 14.1209C6.72415 14.1736 6.86132 14.2008 6.99995 14.2008C7.28039 14.1897 7.54748 14.0833 7.75318 13.9008L9.01554 12.6674C9.20176 12.4679 9.42794 12.3061 9.6807 12.1916C9.93346 12.0771 10.2077 12.0122 10.4871 12.0008H11.1846C11.586 12.0008 11.9709 11.8484 12.2547 11.5771C12.5386 11.3058 12.698 10.9378 12.698 10.5541V3.22078C12.6911 2.8508 12.5362 2.4974 12.2651 2.23327C11.9939 1.96914 11.6272 1.81437 11.2404 1.80078H2.75954ZM5.83523 9.54745H3.90334C3.72329 9.54722 3.54715 9.49729 3.39609 9.40366C3.24503 9.31003 3.12547 9.17668 3.05181 9.01964C2.97814 8.86261 2.95349 8.68858 2.98083 8.51848C3.00816 8.34837 3.08632 8.18944 3.2059 8.06078C3.47904 7.78981 3.78051 7.54632 4.10559 7.33411C4.64262 6.93411 5.31216 6.43411 5.31216 6.00078C5.31625 5.9225 5.3035 5.84425 5.27471 5.77087C5.24592 5.69748 5.2017 5.63052 5.14477 5.57411C5.08352 5.51843 5.01125 5.47501 4.93221 5.44639C4.85316 5.41777 4.76893 5.40453 4.68446 5.40745C4.51799 5.40745 4.35833 5.47066 4.24062 5.58318C4.1229 5.69571 4.05677 5.84832 4.05677 6.00745C4.05677 6.14006 4.00166 6.26723 3.90357 6.361C3.80547 6.45477 3.67242 6.50745 3.53369 6.50745C3.39497 6.50745 3.26192 6.45477 3.16382 6.361C3.06573 6.26723 3.01062 6.14006 3.01062 6.00745C3.0142 5.69 3.11528 5.38055 3.30131 5.11755C3.48733 4.85455 3.7501 4.64959 4.05696 4.52815C4.36382 4.4067 4.70124 4.37411 5.02732 4.43443C5.35339 4.49476 5.65373 4.64533 5.89103 4.86745C6.19511 5.17273 6.36273 5.57928 6.35831 6.00078C6.35831 6.90745 5.50046 7.54078 4.74723 8.10078C4.53103 8.26078 4.3218 8.41411 4.16836 8.55411H5.83523C5.97396 8.55411 6.10701 8.60679 6.2051 8.70056C6.3032 8.79433 6.35831 8.92151 6.35831 9.05411C6.35831 9.18672 6.3032 9.3139 6.2051 9.40767C6.10701 9.50144 5.97396 9.55411 5.83523 9.55411V9.54745ZM10.5569 7.60745H10.2779V5.27411C10.2811 5.10622 10.227 4.9419 10.1238 4.80599C10.0206 4.67009 9.87397 4.56997 9.706 4.52078C9.53839 4.47147 9.35868 4.47462 9.19308 4.52978C9.02747 4.58495 8.88463 4.68924 8.78539 4.82745L6.99995 7.38078C6.91405 7.49756 6.86397 7.63495 6.85534 7.77747C6.84672 7.91999 6.87989 8.06198 6.95113 8.18745C7.01733 8.31078 7.117 8.41483 7.23969 8.48872C7.36239 8.56261 7.50361 8.60362 7.64857 8.60745H9.23175V9.04745C9.23082 9.11279 9.24349 9.17766 9.26901 9.23829C9.29454 9.29891 9.3324 9.35409 9.38042 9.4006C9.42844 9.44712 9.48565 9.48406 9.54872 9.50927C9.6118 9.53448 9.67948 9.54745 9.74785 9.54745C9.88538 9.54746 10.0174 9.4957 10.1153 9.40337C10.2132 9.31103 10.2691 9.18556 10.2709 9.05411V8.60745H10.5569C10.6956 8.60745 10.8287 8.55477 10.9267 8.461C11.0248 8.36723 11.08 8.24006 11.08 8.10745C11.08 7.97484 11.0248 7.84766 10.9267 7.75389C10.8287 7.66013 10.6956 7.60745 10.5569 7.60745ZM9.23175 7.60745H8.074L9.2457 6.00078L9.23175 7.60745Z" fill="#99A1B7"/>
</svg>
