<svg width="16" height="16" viewBox="0 0 16 16" fill="none" xmlns="http://www.w3.org/2000/svg">
<path d="M9.64592 0.860749C8.1842 0.86252 6.78285 1.44397 5.74926 2.47756C4.71567 3.51116 4.13422 4.9125 4.13244 6.37422C4.13342 6.83689 4.19185 7.29764 4.30641 7.7459L1.21512 10.8372C1.0553 10.9937 0.937264 11.1878 0.871807 11.4017C0.806349 11.6156 0.795558 11.8425 0.84042 12.0617L1.16828 13.7478C1.22007 14.015 1.35015 14.2607 1.54198 14.4537C1.73381 14.6467 1.97872 14.7783 2.24555 14.8318L3.97186 15.1596C4.06078 15.1699 4.15058 15.1699 4.2395 15.1596C4.41881 15.1607 4.5965 15.1257 4.76202 15.0567C4.92754 14.9878 5.07751 14.8862 5.20302 14.7582L8.28762 11.6803C8.74179 11.8003 9.2096 11.8611 9.67937 11.8609C11.1416 11.8609 12.544 11.28 13.578 10.2461C14.612 9.2121 15.1928 7.80972 15.1928 6.34746C15.1928 4.88519 14.612 3.48282 13.578 2.44884C12.544 1.41487 11.1416 0.833984 9.67937 0.833984L9.64592 0.860749ZM9.64592 10.8974C9.17509 10.8954 8.70757 10.8187 8.26086 10.6699C8.1733 10.6406 8.07928 10.6363 7.98941 10.6576C7.89955 10.6789 7.81743 10.7249 7.75233 10.7904L6.15985 12.3761L5.07589 11.339C4.97636 11.2744 4.85715 11.2472 4.73943 11.2621C4.62171 11.2771 4.5131 11.3333 4.43288 11.4207C4.35266 11.5081 4.30602 11.6212 4.30124 11.7398C4.29647 11.8583 4.33386 11.9747 4.40678 12.0684L5.47067 13.0921L4.46031 14.0757C4.41791 14.1178 4.3659 14.1489 4.30878 14.1664C4.25166 14.1839 4.19114 14.1872 4.13244 14.1761L2.43959 13.8415C2.36791 13.8289 2.30184 13.7945 2.25037 13.743C2.19889 13.6915 2.16451 13.6255 2.15188 13.5538L1.82401 11.8743C1.81451 11.8156 1.81862 11.7555 1.83602 11.6987C1.85343 11.6418 1.88365 11.5898 1.92438 11.5464L5.2231 8.24773C5.28846 8.1825 5.33483 8.1007 5.35723 8.01111C5.37963 7.92152 5.37721 7.82753 5.35023 7.73921C5.06233 6.83262 5.06845 5.85821 5.36772 4.95532C5.667 4.05242 6.2441 3.26727 7.0165 2.71213C7.78891 2.15699 8.71707 1.86029 9.66826 1.86446C10.6195 1.86863 11.545 2.17345 12.3125 2.73533C13.08 3.29722 13.6502 4.08739 13.9416 4.99288C14.2329 5.89836 14.2305 6.87279 13.9347 7.77682C13.6388 8.68085 13.0647 9.46819 12.2944 10.0263C11.5241 10.5843 10.5971 10.8846 9.64592 10.884V10.8974ZM9.64592 4.23976C9.22083 4.23843 8.80491 4.36328 8.45082 4.59848C8.09673 4.83368 7.8204 5.16866 7.6568 5.56101C7.49321 5.95336 7.44972 6.38543 7.53184 6.80251C7.61396 7.21959 7.81799 7.60293 8.1181 7.90398C8.41822 8.20503 8.80091 8.41026 9.21774 8.49368C9.63456 8.5771 10.0668 8.53495 10.4596 8.37259C10.8525 8.21022 11.1883 7.93493 11.4246 7.58158C11.6609 7.22822 11.7871 6.81269 11.7871 6.3876C11.7888 6.10498 11.7348 5.82479 11.6281 5.56309C11.5213 5.3014 11.364 5.06333 11.1651 4.86256C10.9662 4.66178 10.7296 4.50223 10.4689 4.39307C10.2082 4.2839 9.92854 4.22725 9.64592 4.22638V4.23976ZM9.64592 7.52509C9.41906 7.52642 9.19692 7.46027 9.00774 7.33505C8.81856 7.20984 8.67087 7.03121 8.58344 6.82187C8.49602 6.61253 8.47279 6.38192 8.51673 6.15935C8.56066 5.93678 8.66977 5.73229 8.83019 5.57188C8.99061 5.41146 9.19509 5.30235 9.41767 5.25841C9.64024 5.21448 9.87084 5.2377 10.0802 5.32513C10.2895 5.41256 10.4682 5.56025 10.5934 5.74943C10.7186 5.93861 10.7847 6.16074 10.7834 6.3876C10.7782 6.68641 10.6562 6.97131 10.4437 7.18138C10.2311 7.39145 9.94477 7.51001 9.64592 7.51171V7.52509Z" fill="#99A1B7"/>
</svg>
