<svg width="16" height="16" viewBox="0 0 16 16" fill="none" xmlns="http://www.w3.org/2000/svg">
<path fill-rule="evenodd" clip-rule="evenodd" d="M13.6947 2.03108C13.5243 1.91723 13.3239 1.85646 13.119 1.85646C12.8442 1.85646 12.5807 1.96562 12.3863 2.15994C12.192 2.35425 12.0829 2.6178 12.0829 2.8926C12.0829 3.09753 12.1436 3.29786 12.2575 3.46825C12.3713 3.63865 12.5332 3.77145 12.7225 3.84987C12.9118 3.9283 13.1202 3.94882 13.3212 3.90884C13.5221 3.86886 13.7068 3.77017 13.8517 3.62527C13.9966 3.48036 14.0953 3.29574 14.1352 3.09474C14.1752 2.89375 14.1547 2.68542 14.0763 2.49609C13.9979 2.30676 13.8651 2.14493 13.6947 2.03108ZM11.9677 1.16956C12.3085 0.94185 12.7092 0.820312 13.119 0.820312C13.6686 0.820312 14.1957 1.03864 14.5843 1.42727C14.973 1.8159 15.1913 2.343 15.1913 2.8926C15.1913 3.30246 15.0698 3.70312 14.8421 4.0439C14.6144 4.38469 14.2907 4.6503 13.912 4.80715C13.5334 4.96399 13.1167 5.00503 12.7147 4.92507C12.3127 4.84511 11.9435 4.64775 11.6537 4.35793C11.3639 4.06812 11.1665 3.69887 11.0865 3.29689C11.0066 2.8949 11.0476 2.47823 11.2045 2.09957C11.3613 1.72091 11.6269 1.39726 11.9677 1.16956ZM4.77194 15.181H10.9888C12.0394 15.172 13.0445 14.7506 13.7874 14.0077C14.5303 13.2648 14.9517 12.2597 14.9607 11.2091V6.56026C14.9607 6.42286 14.9061 6.29109 14.809 6.19393C14.7118 6.09677 14.58 6.04219 14.4426 6.04219C14.3052 6.04219 14.1734 6.09677 14.0763 6.19393C13.9791 6.29109 13.9245 6.42286 13.9245 6.56026V11.2091C13.9156 11.9849 13.6034 12.7264 13.0548 13.2751C12.5061 13.8237 11.7646 14.1359 10.9888 14.1448H4.77194C3.99611 14.1359 3.2546 13.8237 2.70597 13.2751C2.15734 12.7264 1.84516 11.9849 1.83619 11.2091V4.99223C1.84516 4.21641 2.15734 3.47489 2.70597 2.92627C3.2546 2.37764 3.99611 2.06546 4.77194 2.05649H9.34479C9.48219 2.05649 9.61396 2.00191 9.71112 1.90475C9.80828 1.80759 9.86286 1.67582 9.86286 1.53842C9.86286 1.40102 9.80828 1.26924 9.71112 1.17208C9.61396 1.07493 9.48219 1.02035 9.34479 1.02035H4.77194C3.72132 1.02936 2.71628 1.45072 1.97336 2.19365C1.23043 2.93658 0.809068 3.94161 0.800049 4.99223V11.2091C0.809068 12.2597 1.23043 13.2648 1.97336 14.0077C2.71628 14.7506 3.72132 15.172 4.77194 15.181Z" fill="#99A1B7"/>
</svg>
