<svg width="27" height="29" viewBox="0 0 27 29" fill="none" xmlns="http://www.w3.org/2000/svg">
<path d="M25.1666 27.625C25.1666 25.5898 25.1666 24.5722 24.9154 23.7442C24.3499 21.8798 22.8909 20.4209 21.0266 19.8553C20.1985 19.6042 19.1809 19.6042 17.1457 19.6042H9.85409C7.81889 19.6042 6.80129 19.6042 5.97325 19.8553C4.10892 20.4209 2.64998 21.8798 2.08443 23.7442C1.83325 24.5722 1.83325 25.5898 1.83325 27.625M20.0624 7.9375C20.0624 11.5619 17.1243 14.5 13.4999 14.5C9.87555 14.5 6.93742 11.5619 6.93742 7.9375C6.93742 4.31313 9.87555 1.375 13.4999 1.375C17.1243 1.375 20.0624 4.31313 20.0624 7.9375Z" stroke="#2F353D" stroke-width="2" stroke-linecap="round" stroke-linejoin="round"/>
</svg>
